<?xml version="1.0" encoding="UTF-8" standalone="no"?>
<!DOCTYPE svg PUBLIC "-//W3C//DTD SVG 1.1//EN" "http://www.w3.org/Graphics/SVG/1.1/DTD/svg11.dtd">
<svg width="100%" height="100%" viewBox="0 0 758 634" version="1.1" xmlns="http://www.w3.org/2000/svg" xmlns:xlink="http://www.w3.org/1999/xlink" xml:space="preserve" xmlns:serif="http://www.serif.com/" style="fill-rule:evenodd;clip-rule:evenodd;stroke-linejoin:round;stroke-miterlimit:2;">
    <g transform="matrix(1,0,0,1,-1603.24,-437.617)">
        <g transform="matrix(8.33333,0,0,8.33333,0,0)">
            <g transform="matrix(-129.276,31.7976,31.7976,129.276,294.209,79.9404)">
                <path d="M0.467,-0.327C0.485,-0.331 0.503,-0.32 0.508,-0.302L0.552,-0.123C0.591,-0.114 0.606,-0.075 0.607,-0.074C0.607,-0.073 0.607,-0.072 0.607,-0.072L0.623,-0.008C0.625,-0.026 0.625,-0.041 0.622,-0.061L0.613,-0.109C0.613,-0.109 0.613,-0.109 0.613,-0.109C0.612,-0.112 0.612,-0.114 0.612,-0.117L0.599,-0.17C0.596,-0.173 0.594,-0.177 0.593,-0.182C0.592,-0.187 0.592,-0.192 0.593,-0.196L0.593,-0.197C0.589,-0.211 0.599,-0.226 0.613,-0.23L0.648,-0.238C0.663,-0.242 0.678,-0.233 0.682,-0.218L0.682,-0.217C0.685,-0.214 0.687,-0.209 0.688,-0.204C0.689,-0.199 0.689,-0.195 0.688,-0.19L0.703,-0.131L0.718,-0.082C0.724,-0.064 0.734,-0.049 0.743,-0.033C0.748,-0.025 0.753,-0.018 0.757,-0.011L0.781,0.029C0.803,0.068 0.814,0.108 0.826,0.155C0.828,0.164 0.823,0.172 0.814,0.174C0.806,0.176 0.797,0.171 0.795,0.163C0.784,0.118 0.774,0.08 0.754,0.045L0.73,0.005C0.725,-0.002 0.721,-0.009 0.717,-0.016C0.706,-0.034 0.696,-0.05 0.688,-0.072L0.672,-0.123L0.657,-0.187C0.656,-0.19 0.656,-0.194 0.657,-0.197C0.654,-0.2 0.653,-0.203 0.652,-0.207L0.625,-0.2C0.626,-0.196 0.626,-0.192 0.624,-0.189C0.626,-0.187 0.627,-0.184 0.628,-0.182L0.643,-0.122C0.643,-0.121 0.644,-0.116 0.644,-0.115L0.653,-0.065C0.657,-0.036 0.655,-0.016 0.653,0.013L0.647,0.062C0.647,0.072 0.647,0.082 0.648,0.093C0.648,0.101 0.642,0.108 0.634,0.11C0.626,0.111 0.619,0.106 0.617,0.098L0.577,-0.063C0.575,-0.068 0.564,-0.092 0.538,-0.094C0.53,-0.094 0.524,-0.1 0.523,-0.108L0.477,-0.294C0.477,-0.296 0.475,-0.297 0.474,-0.296L0.434,-0.287C0.433,-0.286 0.432,-0.285 0.432,-0.283L0.479,-0.095C0.48,-0.088 0.477,-0.081 0.471,-0.078C0.444,-0.064 0.448,-0.032 0.448,-0.032L0.466,0.042C0.468,0.049 0.465,0.056 0.458,0.06C0.451,0.063 0.443,0.061 0.439,0.055C0.431,0.046 0.422,0.038 0.411,0.033C0.409,0.032 0.406,0.03 0.405,0.028C0.403,0.027 0.402,0.026 0.4,0.026C0.387,0.021 0.379,0.015 0.373,-0.005C0.371,-0.01 0.37,-0.015 0.368,-0.02C0.367,-0.024 0.368,-0.028 0.37,-0.032C0.37,-0.032 0.37,-0.032 0.37,-0.032L0.366,-0.047C0.363,-0.059 0.359,-0.071 0.354,-0.082L0.344,-0.104C0.342,-0.108 0.342,-0.113 0.344,-0.117C0.345,-0.118 0.345,-0.12 0.346,-0.121L0.338,-0.142C0.337,-0.146 0.337,-0.15 0.338,-0.154L0.335,-0.169L0.268,-0.152L0.272,-0.138C0.276,-0.135 0.278,-0.131 0.279,-0.126L0.281,-0.105C0.282,-0.104 0.283,-0.103 0.285,-0.103C0.288,-0.1 0.29,-0.096 0.291,-0.091L0.292,-0.067C0.293,-0.055 0.295,-0.042 0.298,-0.03L0.301,-0.015C0.305,-0.012 0.307,-0.009 0.308,-0.005C0.309,-0 0.31,0.005 0.31,0.01C0.314,0.031 0.31,0.04 0.301,0.05C0.3,0.051 0.298,0.052 0.297,0.053C0.297,0.056 0.296,0.059 0.294,0.061C0.28,0.079 0.276,0.102 0.281,0.123L0.296,0.183C0.297,0.19 0.294,0.198 0.288,0.201C0.281,0.204 0.274,0.203 0.269,0.198C0.264,0.192 0.258,0.188 0.251,0.185C0.247,0.183 0.244,0.179 0.242,0.175L0.2,0.044C0.199,0.039 0.2,0.034 0.202,0.03L0.196,0.013L0.158,0.022L0.161,0.041C0.165,0.043 0.168,0.047 0.169,0.052L0.191,0.188C0.191,0.192 0.19,0.196 0.187,0.2C0.177,0.213 0.173,0.23 0.177,0.246L0.193,0.312C0.195,0.321 0.19,0.329 0.182,0.331C0.173,0.333 0.165,0.328 0.163,0.32L0.147,0.254C0.141,0.23 0.145,0.206 0.159,0.186L0.139,0.066C0.135,0.062 0.131,0.057 0.131,0.051L0.126,0.02C0.125,0.008 0.133,-0.004 0.145,-0.007L0.195,-0.019C0.207,-0.022 0.219,-0.016 0.223,-0.004L0.234,0.025C0.236,0.031 0.236,0.037 0.233,0.043L0.248,0.092C0.251,0.076 0.257,0.06 0.266,0.047C0.267,0.045 0.267,0.043 0.268,0.041C0.272,0.035 0.275,0.031 0.278,0.028C0.279,0.027 0.28,0.026 0.28,0.025C0.28,0.025 0.281,0.023 0.28,0.015C0.279,0.014 0.279,0.013 0.279,0.011C0.276,0.009 0.274,0.006 0.273,0.003L0.267,-0.023C0.264,-0.037 0.262,-0.051 0.261,-0.065L0.26,-0.079C0.255,-0.082 0.251,-0.088 0.251,-0.095L0.248,-0.116C0.245,-0.119 0.243,-0.123 0.242,-0.128L0.236,-0.15C0.233,-0.164 0.242,-0.178 0.255,-0.181L0.333,-0.2C0.346,-0.204 0.361,-0.195 0.364,-0.181L0.369,-0.159C0.37,-0.155 0.37,-0.151 0.369,-0.147L0.378,-0.126C0.38,-0.12 0.38,-0.113 0.377,-0.107L0.383,-0.095C0.388,-0.082 0.393,-0.068 0.397,-0.054L0.403,-0.029C0.404,-0.025 0.403,-0.021 0.402,-0.018C0.402,-0.017 0.402,-0.016 0.403,-0.014C0.405,-0.007 0.407,-0.005 0.407,-0.005C0.407,-0.005 0.409,-0.004 0.41,-0.004C0.414,-0.003 0.419,-0.001 0.425,0.003C0.425,0.003 0.425,0.003 0.425,0.003L0.418,-0.025C0.418,-0.026 0.41,-0.072 0.445,-0.099L0.402,-0.276C0.397,-0.294 0.409,-0.313 0.427,-0.317L0.467,-0.327ZM0.658,-0.198C0.658,-0.198 0.658,-0.198 0.658,-0.198C0.658,-0.198 0.658,-0.198 0.658,-0.198L0.658,-0.198ZM0.624,-0.188C0.624,-0.188 0.624,-0.188 0.624,-0.188C0.624,-0.188 0.624,-0.188 0.624,-0.188C0.624,-0.188 0.624,-0.188 0.624,-0.188ZM0.643,-0.116L0.643,-0.116L0.643,-0.116ZM0.204,0.036C0.205,0.036 0.205,0.036 0.205,0.036L0.204,0.036Z" style="fill:url(#_Linear1);fill-rule:nonzero;"/>
            </g>
        </g>
    </g>
    <defs>
        <linearGradient id="_Linear1" x1="0" y1="0" x2="1" y2="0" gradientUnits="userSpaceOnUse" gradientTransform="matrix(1,-2.77556e-17,-2.77556e-17,-1,0,0.00187391)"><stop offset="0" style="stop-color:rgb(22,111,185);stop-opacity:1"/><stop offset="0.51" style="stop-color:rgb(151,221,208);stop-opacity:1"/><stop offset="1" style="stop-color:rgb(0,170,227);stop-opacity:1"/></linearGradient>
    </defs>
</svg>
