<?xml version="1.0" encoding="UTF-8" standalone="no"?>
<!DOCTYPE svg PUBLIC "-//W3C//DTD SVG 1.1//EN" "http://www.w3.org/Graphics/SVG/1.1/DTD/svg11.dtd">
<svg width="100%" height="100%" viewBox="0 0 1946 1003" version="1.1" xmlns="http://www.w3.org/2000/svg" xmlns:xlink="http://www.w3.org/1999/xlink" xml:space="preserve" xmlns:serif="http://www.serif.com/" style="fill-rule:evenodd;clip-rule:evenodd;stroke-linejoin:round;stroke-miterlimit:2;">
    <g transform="matrix(1,0,0,1,-11387.9,-61822.8)">
        <g transform="matrix(8.33333,0,0,8.33333,0,0)">
            <g transform="matrix(1,0,0,1,1412.53,7442.86)">
                <path d="M0,-23.768L-0.188,-16.703L0.806,-16.703L1.117,-18.733C1.203,-19.2 1.319,-19.648 1.454,-20.053C1.585,-20.439 1.783,-20.757 2.054,-21.018C2.323,-21.276 2.714,-21.495 3.235,-21.66C3.745,-21.826 4.439,-21.91 5.312,-21.91L6.841,-21.91L6.841,0L10.451,0L10.451,-21.91L11.74,-21.91C12.587,-21.91 13.286,-21.836 13.825,-21.695C14.371,-21.546 14.807,-21.344 15.134,-21.09C15.463,-20.834 15.703,-20.523 15.862,-20.142C16.028,-19.752 16.13,-19.289 16.177,-18.748L16.407,-16.703L17.409,-16.703L17.221,-23.768L0,-23.768Z" style="fill:rgb(0,51,161);fill-rule:nonzero;"/>
            </g>
        </g>
        <g transform="matrix(8.33333,0,0,8.33333,0,0)">
            <g transform="matrix(1,0,0,1,1448.42,7424.2)">
                <path d="M0,13.552L-0.041,13.748C-0.291,14.926 -0.718,15.711 -1.275,16.134C-1.835,16.56 -2.771,16.803 -4.096,16.801L-7.452,16.801C-7.887,16.801 -8.224,16.778 -8.457,16.737C-8.658,16.694 -8.777,16.614 -8.869,16.475C-8.963,16.335 -9.041,16.073 -9.072,15.701C-9.108,15.312 -9.129,14.781 -9.129,14.114L-9.129,7.161L-5.806,7.163C-4.65,7.161 -3.896,7.407 -3.509,7.819C-3.101,8.244 -2.877,8.908 -2.877,9.852L-2.877,10.098L-1.645,10.098L-1.645,2.369L-2.877,2.369L-2.877,2.616C-2.877,3.204 -2.933,3.682 -3.041,4.029C-3.146,4.379 -3.308,4.632 -3.507,4.804C-3.712,4.979 -3.995,5.109 -4.371,5.184C-4.761,5.264 -5.241,5.305 -5.806,5.305L-9.129,5.305L-9.129,-0.564C-9.129,-1.187 -9.108,-1.688 -9.074,-2.057C-9.039,-2.426 -8.967,-2.695 -8.877,-2.853C-8.793,-3 -8.672,-3.094 -8.455,-3.154C-8.223,-3.217 -7.882,-3.251 -7.452,-3.251L-4.377,-3.249C-3.146,-3.251 -2.258,-3.031 -1.71,-2.635C-1.161,-2.242 -0.769,-1.549 -0.566,-0.518L-0.113,1.955L0.954,1.955L0.538,-5.109L-15.77,-5.109L-15.77,-3.917L-15.521,-3.917C-15.071,-3.917 -14.656,-3.886 -14.286,-3.831C-13.933,-3.775 -13.649,-3.666 -13.431,-3.509C-13.227,-3.361 -13.053,-3.12 -12.925,-2.768C-12.8,-2.426 -12.733,-1.933 -12.733,-1.296L-12.733,18.661L1.065,18.661L1.335,13.552L0,13.552Z" style="fill:rgb(0,51,161);fill-rule:nonzero;"/>
            </g>
        </g>
        <g transform="matrix(8.33333,0,0,8.33333,0,0)">
            <g transform="matrix(1,0,0,1,1467.49,7434.72)">
                <path d="M0,-3.743C0,-2.397 -0.047,-1.081 -0.156,0.2C-0.259,1.477 -0.497,2.598 -0.874,3.559C-1.244,4.514 -1.779,5.274 -2.477,5.854C-3.152,6.411 -4.082,6.701 -5.307,6.701C-6.525,6.701 -7.457,6.411 -8.136,5.852C-8.835,5.274 -9.366,4.514 -9.742,3.558C-10.116,2.598 -10.353,1.477 -10.454,0.202C-10.563,-1.081 -10.614,-2.397 -10.614,-3.743L-10.612,-3.743C-10.614,-5.087 -10.563,-6.39 -10.454,-7.651C-10.353,-8.904 -10.116,-10.011 -9.74,-10.972C-9.366,-11.929 -8.835,-12.689 -8.136,-13.263C-7.457,-13.824 -6.525,-14.116 -5.307,-14.116C-4.082,-14.116 -3.152,-13.824 -2.477,-13.263C-1.779,-12.689 -1.244,-11.929 -0.874,-10.972C-0.497,-10.011 -0.257,-8.904 -0.156,-7.653C-0.047,-6.39 0,-5.087 0,-3.743M2.445,4.356C3.007,3.269 3.4,2.035 3.622,0.646C3.846,-0.728 3.959,-2.192 3.959,-3.743C3.959,-5.456 3.813,-7.056 3.515,-8.543C3.219,-10.034 2.723,-11.334 2.014,-12.44C1.308,-13.545 0.353,-14.417 -0.839,-15.038C-2.041,-15.669 -3.531,-15.976 -5.307,-15.977C-7.081,-15.976 -8.573,-15.669 -9.775,-15.038C-10.963,-14.417 -11.918,-13.545 -12.626,-12.44C-13.333,-11.334 -13.831,-10.035 -14.129,-8.543C-14.426,-7.056 -14.569,-5.456 -14.569,-3.743C-14.569,-2.192 -14.452,-0.738 -14.217,0.616C-13.981,1.979 -13.588,3.19 -13.037,4.251C-12.49,5.319 -11.745,6.219 -10.823,6.937C-9.918,7.641 -8.805,8.116 -7.493,8.362C-7.218,8.874 -6.88,9.356 -6.489,9.805C-6.061,10.296 -5.516,10.719 -4.868,11.08C-4.212,11.443 -3.436,11.727 -2.544,11.929C-1.647,12.135 -0.588,12.234 0.635,12.234C1.713,12.234 2.773,12.027 3.801,11.618L3.959,11.555L3.959,10.218L3.601,10.397C3.536,10.429 3.404,10.474 3.229,10.521C3.077,10.561 2.901,10.596 2.688,10.616C2.481,10.638 2.211,10.652 1.896,10.652C1,10.652 0.268,10.566 -0.288,10.399C-0.865,10.229 -1.336,10.022 -1.692,9.784C-2.054,9.541 -2.341,9.272 -2.552,8.973C-2.707,8.758 -2.85,8.541 -2.982,8.327C-1.738,8.111 -0.678,7.689 0.189,7.048C1.128,6.347 1.882,5.449 2.445,4.356" style="fill:rgb(0,51,161);fill-rule:nonzero;"/>
            </g>
        </g>
        <g transform="matrix(8.33333,0,0,8.33333,0,0)">
            <g transform="matrix(1,0,0,1,1490.41,7439.4)">
                <path d="M0,-16.495L-0.002,-4.856C0,-3.819 -0.068,-2.879 -0.203,-2.031C-0.34,-1.2 -0.602,-0.496 -0.99,0.091C-1.37,0.664 -1.915,1.116 -2.65,1.451C-3.371,1.78 -4.352,1.953 -5.586,1.953C-6.702,1.953 -7.575,1.758 -8.227,1.39C-8.891,1.013 -9.395,0.518 -9.759,-0.109C-10.126,-0.746 -10.379,-1.47 -10.515,-2.295C-10.653,-3.131 -10.72,-3.986 -10.72,-4.856L-10.72,-20.306L-17.367,-20.306L-17.367,-19.113L-17.119,-19.113C-16.639,-19.113 -16.218,-19.083 -15.863,-19.027C-15.523,-18.973 -15.249,-18.863 -15.03,-18.704C-14.824,-18.556 -14.651,-18.316 -14.521,-17.964C-14.397,-17.623 -14.326,-17.13 -14.326,-16.495L-14.326,-4.856C-14.326,-3.61 -14.232,-2.468 -14.044,-1.425C-13.85,-0.364 -13.442,0.565 -12.825,1.343C-12.198,2.13 -11.312,2.737 -10.184,3.166C-9.045,3.603 -7.563,3.811 -5.726,3.811C-3.891,3.811 -2.425,3.597 -1.318,3.148C-0.226,2.704 0.616,2.087 1.185,1.298C1.746,0.518 2.103,-0.413 2.262,-1.482C2.41,-2.537 2.49,-3.659 2.49,-4.856L2.49,-20.304L0,-20.304L0,-16.495Z" style="fill:rgb(0,51,161);fill-rule:nonzero;"/>
            </g>
        </g>
        <g transform="matrix(8.33333,0,0,8.33333,0,0)">
            <g transform="matrix(1,0,0,1,1496.88,7441.91)">
                <path d="M0,-22.824L0,-21.632L0.248,-21.632C0.727,-21.632 1.149,-21.601 1.504,-21.547C1.844,-21.491 2.119,-21.383 2.342,-21.225C2.545,-21.076 2.716,-20.836 2.844,-20.484C2.972,-20.141 3.042,-19.65 3.042,-19.012L3.04,-19.012L3.04,0.944L6.648,0.944L6.648,-22.824L0,-22.824Z" style="fill:rgb(0,51,161);fill-rule:nonzero;"/>
            </g>
        </g>
        <g transform="matrix(8.33333,0,0,8.33333,0,0)">
            <g transform="matrix(1,0,0,1,1523.34,7426.08)">
                <path d="M0,9.782L-0.317,11.446C-0.454,12.085 -0.609,12.632 -0.777,13.081C-0.943,13.522 -1.162,13.866 -1.435,14.127C-1.702,14.389 -2.055,14.584 -2.502,14.713C-2.947,14.846 -3.536,14.915 -4.269,14.915L-6.607,14.915C-7.135,14.915 -7.552,14.893 -7.844,14.848C-8.133,14.803 -8.319,14.719 -8.425,14.615C-8.544,14.509 -8.627,14.346 -8.671,14.093C-8.713,13.824 -8.738,13.44 -8.738,12.961L-8.738,-6.993L-15.381,-6.993L-15.381,-5.802L-15.133,-5.802C-14.677,-5.802 -14.265,-5.771 -13.894,-5.715C-13.542,-5.661 -13.259,-5.551 -13.043,-5.394C-12.839,-5.247 -12.665,-5.003 -12.537,-4.653C-12.41,-4.312 -12.342,-3.821 -12.342,-3.184L-12.342,16.775L0.616,16.775L0.918,9.782L0,9.782Z" style="fill:rgb(0,51,161);fill-rule:nonzero;"/>
            </g>
        </g>
        <g transform="matrix(8.33333,0,0,8.33333,0,0)">
            <g transform="matrix(1,0,0,1,1540.73,7428.32)">
                <path d="M0,4.956L-7.081,4.956L-3.524,-4.732L0,4.956ZM7.23,14.171C7.017,13.562 6.549,12.313 5.829,10.426C5.527,9.612 5.155,8.63 4.707,7.473C4.269,6.32 3.745,4.94 3.137,3.334C2.534,1.727 1.838,-0.127 1.06,-2.241C0.278,-4.347 -0.622,-6.743 -1.649,-9.421L-1.711,-9.582L-7.02,-9.582L-7.02,-8.387L-6.771,-8.387C-5.883,-8.391 -5.279,-8.28 -5.01,-8.122C-4.807,-7.995 -4.749,-7.895 -4.743,-7.725C-4.743,-7.677 -4.75,-7.619 -4.766,-7.555C-4.796,-7.504 -4.812,-7.448 -4.819,-7.398C-6.071,-4.126 -7.137,-1.318 -8.017,1.027C-8.903,3.378 -9.654,5.353 -10.27,6.947C-10.89,8.546 -11.378,9.819 -11.74,10.776C-12.101,11.732 -12.375,12.459 -12.564,12.964C-12.748,13.459 -12.908,13.872 -13.045,14.19L-13.197,14.538L-10.438,14.538L-10.438,14.322C-10.359,14.05 -9.454,11.514 -7.752,6.817L0.672,6.817C0.926,7.515 1.151,8.126 1.349,8.646C1.555,9.205 1.785,9.821 2.031,10.498C2.27,11.171 2.504,11.789 2.708,12.348C2.92,12.911 3.179,13.576 3.479,14.344L3.54,14.501L7.344,14.501L7.23,14.171Z" style="fill:rgb(0,51,161);fill-rule:nonzero;"/>
            </g>
        </g>
        <g transform="matrix(8.33333,0,0,8.33333,0,0)">
            <g transform="matrix(1,0,0,1,1375.48,7489.35)">
                <path d="M0,3L1.733,-1.32L3.396,3L0,3ZM-1.524,6.959L-0.438,4.19L3.908,4.19L4.268,5.197C5.007,7.306 6.45,7.668 7.252,7.668C7.266,7.668 7.282,7.667 7.297,7.667C7.566,7.667 7.828,7.631 8.025,7.569C8.119,7.537 8.183,7.445 8.183,7.34L8.183,6.984C8.183,6.86 8.095,6.757 7.981,6.746C7.552,6.702 7.292,6.591 7.053,6.344C6.813,6.096 6.592,5.679 6.34,5.021L2.689,-4.521C2.655,-4.609 2.573,-4.668 2.483,-4.668L1.986,-4.668C1.897,-4.668 1.817,-4.61 1.781,-4.522L-2.181,5.512C-2.347,5.942 -2.49,6.388 -3.204,6.388L-5.509,6.388L-5.509,-2.29C-5.513,-3.194 -5.582,-3.772 -5.869,-4.177C-6.167,-4.582 -6.633,-4.668 -7.224,-4.668L-8.718,-4.668C-8.776,-4.668 -8.834,-4.643 -8.875,-4.597C-8.917,-4.552 -8.939,-4.492 -8.939,-4.428L-8.939,-4.073C-8.939,-4.01 -8.917,-3.949 -8.875,-3.904C-8.834,-3.859 -8.776,-3.835 -8.718,-3.835L-8.387,-3.835C-7.932,-3.826 -7.756,-3.696 -7.624,-3.465C-7.493,-3.227 -7.444,-2.813 -7.446,-2.29L-7.446,7.34C-7.446,7.404 -7.423,7.465 -7.382,7.508C-7.34,7.553 -7.283,7.578 -7.224,7.578L-2.321,7.578C-1.988,7.578 -1.725,7.42 -1.524,6.959" style="fill:rgb(0,51,161);fill-rule:nonzero;"/>
            </g>
        </g>
        <g transform="matrix(8.33333,0,0,8.33333,0,0)">
            <g transform="matrix(1,0,0,1,1568.68,7480.81)">
                <path d="M0,34.28L0.004,34.301L-18.541,34.301L-6.074,5.381L3.64,28.861C4.529,31.44 2.773,34.072 0,34.28M-98.744,23.331C-99.665,23.331 -100.647,23.263 -101.625,23.153L-101.632,23.118C-101.784,23.118 -101.93,23.109 -102.077,23.094L-102.223,23.077C-104.234,22.823 -105.842,21.299 -106.225,19.332L-106.225,-5.058L-98.744,-5.089C-93.261,-5.089 -83.288,-1.1 -83.288,9.37C-83.288,19.341 -93.261,23.331 -98.744,23.331M-139.801,34.28L-139.797,34.301L-158.356,34.301L-145.891,5.381L-136.144,28.93C-135.281,31.44 -137.037,34.151 -139.801,34.28M20.352,44.771L-1.587,-8.58L-4.579,-8.58L-26.871,43.969C-26.871,43.969 -29.448,50.915 -40.89,50.915L-55.641,50.915L-55.641,29.905C-55.624,27.587 -53.932,25.378 -51.699,25.324L-31.417,25.324L-31.417,19.209L-51.46,19.209C-53.932,19.158 -55.624,16.994 -55.641,14.595L-55.641,0.127C-55.62,-2.439 -53.536,-4.511 -50.964,-4.511L-50.964,-4.591L-39.793,-4.591C-31.814,-4.591 -27.328,-1.1 -27.328,6.877L-25.335,6.877L-25.335,-0.604C-25.335,-4.591 -26.828,-8.58 -33.812,-8.58L-73.59,-8.58L-73.59,-4.612L-71.598,-4.612C-65.615,-4.612 -64.616,-0.624 -64.616,5.359L-64.616,49.834C-64.608,52.332 -66.445,54.766 -69.267,54.005L-69.267,54.025C-72.639,52.548 -75.329,49.561 -78.799,43.775L-89.269,26.323C-82.291,24.826 -73.315,20.838 -73.315,9.37C-73.315,-6.585 -89.768,-8.58 -98.244,-8.58L-124.174,-8.58L-124.174,-4.612L-122.18,-4.612C-116.198,-4.612 -115.199,-0.624 -115.199,5.359L-115.199,52.286C-116.724,50.662 -118.02,48.267 -119.467,44.771L-141.405,-8.58L-144.397,-8.58L-165.644,41.505C-165.654,41.519 -165.669,41.535 -165.674,41.548C-166.123,42.56 -166.628,44.009 -167.75,44.479C-168.781,44.908 -170.423,44.461 -170.824,43.381L-170.824,-9.575C-170.824,-13.66 -169.49,-15.447 -166.325,-15.447L-151.914,-15.447L-151.914,-23.955L-192.045,-23.955C-199.026,-23.955 -200.522,-19.187 -200.522,-15.198L-200.522,-3.979L-198.526,-3.979C-198.526,-11.956 -194.041,-15.447 -186.061,-15.447L-181.055,-15.447L-181.055,48.915C-181.055,53.284 -177.905,57.239 -172.425,57.239C-169.515,57.239 -167.758,56.872 -166.56,54.223L-159.851,38.29L-135.747,38.29C-134.043,38.375 -132.582,39.364 -131.836,40.796L-130.304,44.771C-125.187,56.231 -116.972,57.737 -112.486,57.737C-110.286,57.737 -106.225,57.239 -106.225,57.239L-106.225,33.948C-106.172,31.361 -104.033,29.615 -101.562,29.615L-101.562,29.613L-97.031,29.613L-89.269,43.775C-82.79,54.743 -78.302,58.235 -71.321,58.235C-68.828,58.235 -66.334,57.737 -63.979,57.239L-32.472,57.222C-28.75,57.081 -26.491,55.131 -25.433,52.254L-20.036,38.29L4.255,38.29C5.995,38.378 7.488,39.403 8.217,40.88L10.38,44.771C16.113,56.363 22.847,57.737 27.332,57.737C28.829,57.737 30.325,57.537 31.324,57.239L31.324,55.242C25.837,54.743 23.443,52.254 20.352,44.771" style="fill:rgb(0,51,161);fill-rule:nonzero;"/>
            </g>
        </g>
    </g>
</svg>
